<?xml version="1.0" standalone="no"?>
<!DOCTYPE svg PUBLIC "-//W3C//DTD SVG 20010904//EN"
 "http://www.w3.org/TR/2001/REC-SVG-20010904/DTD/svg10.dtd">
<svg version="1.0" xmlns="http://www.w3.org/2000/svg"
 width="322.000000pt" height="322.000000pt" viewBox="0 0 322.000000 322.000000"
 preserveAspectRatio="xMidYMid meet">

<g transform="translate(0.000000,322.000000) scale(0.100000,-0.100000)"
fill="#000000" stroke="none">
<path d="M1 3123 l0 -98 47 93 c26 50 53 92 60 92 9 0 12 -6 9 -17 -4 -10 -31
-90 -62 -178 -46 -133 -55 -171 -55 -228 0 -59 2 -68 17 -65 10 2 28 31 46 76
16 40 32 70 35 68 3 -3 -1 -33 -8 -66 -7 -33 -11 -62 -9 -65 3 -2 34 0 69 5
36 6 155 12 265 16 110 3 223 10 250 15 48 9 51 12 63 51 22 68 110 236 165
315 43 60 57 73 80 73 15 0 27 -2 27 -3 0 -2 -9 -46 -20 -98 -21 -100 -46
-296 -39 -303 2 -2 72 -8 155 -11 l151 -8 12 49 c7 27 27 96 46 154 26 77 34
93 30 60 -3 -25 -8 -93 -12 -151 l-6 -106 27 -5 c30 -6 30 -7 44 72 l9 55 2
-60 1 -60 242 0 c134 0 279 -2 323 -5 l80 -5 0 213 0 212 57 0 c31 0 59 -3 61
-7 3 -5 13 -99 23 -210 13 -150 22 -203 31 -203 15 0 16 82 5 213 -4 42 -5 77
-2 77 3 0 21 -62 39 -137 18 -76 38 -143 45 -149 11 -12 109 -29 230 -40 l69
-7 -7 74 c-8 86 -53 367 -62 380 -3 5 6 9 19 9 22 0 27 -9 51 -82 31 -101 66
-272 66 -325 0 -45 20 -79 42 -71 12 5 14 26 12 115 l-3 108 19 -90 c11 -49
19 -100 20 -111 0 -22 36 -34 105 -34 17 0 55 -7 85 -15 48 -13 153 -35 242
-50 l27 -4 0 284 0 285 -1610 0 -1609 0 1 -97z m509 77 c0 -5 -7 -28 -16 -50
-16 -40 -34 -53 -34 -25 0 8 -6 15 -13 15 -30 0 -174 -43 -205 -61 -40 -23
-42 -23 -42 -3 0 12 -5 11 -20 -7 -24 -29 -25 -18 -4 52 28 95 15 89 184 89
91 0 150 -4 150 -10z m100 4 c0 -9 -57 -105 -79 -134 -33 -41 -32 -18 1 63 27
64 36 77 55 77 13 0 23 -3 23 -6z m40 -3 c0 -5 -6 -14 -14 -20 -12 -10 -13 -8
-9 8 5 21 23 30 23 12z m417 -20 c-3 -16 -13 -44 -21 -62 l-14 -34 -1 40 c-1
55 8 85 26 85 12 0 14 -7 10 -29z"/>
<path d="M2547 2425 c-21 -7 -42 -17 -45 -21 -4 -4 2 -4 13 0 23 8 96 24 140
29 18 2 9 4 -20 5 -27 1 -67 -5 -88 -13z"/>
<path d="M2540 2395 c-82 -23 -185 -63 -178 -70 2 -2 50 12 108 30 58 19 130
41 160 49 41 11 47 14 25 14 -16 1 -68 -10 -115 -23z"/>
<path d="M495 2371 c6 -5 46 -19 90 -31 79 -22 241 -85 260 -102 5 -4 14 -8
20 -8 35 1 -108 76 -215 113 -82 27 -171 44 -155 28z"/>
<path d="M95 2312 l-90 -27 -3 -226 -2 -225 72 12 c89 16 468 19 559 5 35 -5
98 -15 140 -21 97 -16 132 -9 64 12 l-50 15 -8 59 c-5 32 -17 84 -27 114 -11
30 -18 56 -16 58 2 1 27 -11 55 -28 65 -38 76 -38 31 0 -41 36 -15 30 45 -10
64 -42 136 -82 141 -78 10 11 -77 111 -138 158 -147 115 -257 167 -414 194
-133 24 -251 19 -359 -12z"/>
<path d="M2615 2329 c-127 -17 -198 -44 -266 -102 -34 -28 -84 -69 -113 -89
-93 -69 -142 -128 -83 -101 31 14 207 74 234 80 20 5 18 -1 -21 -59 -23 -36
-49 -86 -57 -111 -13 -45 -15 -47 -49 -47 -20 0 -45 -7 -56 -15 -19 -14 -19
-14 1 -15 11 -1 36 -4 55 -7 19 -3 121 -5 225 -4 263 3 548 -31 717 -85 17 -5
18 6 18 224 l0 229 -57 26 c-32 14 -74 30 -93 36 -19 5 -55 17 -80 26 -54 21
-269 29 -375 14z m-148 -365 c8 -23 -14 -34 -69 -34 -52 0 -71 16 -43 37 27
19 104 17 112 -3z"/>
<path d="M2325 2310 c-3 -6 1 -7 9 -4 18 7 21 14 7 14 -6 0 -13 -4 -16 -10z"/>
<path d="M1740 1970 c0 -5 5 -10 10 -10 6 0 10 5 10 10 0 6 -4 10 -10 10 -5 0
-10 -4 -10 -10z"/>
<path d="M1340 1945 c0 -8 7 -15 15 -15 8 0 15 7 15 15 0 8 -7 15 -15 15 -8 0
-15 -7 -15 -15z"/>
<path d="M1404 1821 c-47 -21 -54 -38 -54 -124 0 -75 14 -66 30 19 l13 66 53
25 c30 13 54 26 54 29 0 11 -59 2 -96 -15z"/>
<path d="M493 1813 c-19 -7 -16 -26 2 -19 8 3 59 1 112 -4 54 -5 99 -7 101 -5
13 12 -189 39 -215 28z"/>
<path d="M2400 1805 c-35 -14 -34 -14 35 -13 39 1 75 -1 82 -5 6 -4 18 -4 27
-1 13 5 14 9 5 20 -15 18 -102 17 -149 -1z"/>
<path d="M1185 1800 c-3 -5 1 -10 10 -10 9 0 13 5 10 10 -3 6 -8 10 -10 10 -2
0 -7 -4 -10 -10z"/>
<path d="M1760 1790 c0 -5 7 -10 15 -10 8 0 15 5 15 10 0 6 -7 10 -15 10 -8 0
-15 -4 -15 -10z"/>
<path d="M675 1710 c-4 -6 -3 -16 3 -22 6 -6 12 -6 17 2 4 6 3 16 -3 22 -6 6
-12 6 -17 -2z"/>
<path d="M2530 1690 c0 -5 5 -10 11 -10 5 0 7 5 4 10 -3 6 -8 10 -11 10 -2 0
-4 -4 -4 -10z"/>
<path d="M580 1680 c0 -5 5 -10 11 -10 5 0 7 5 4 10 -3 6 -8 10 -11 10 -2 0
-4 -4 -4 -10z"/>
<path d="M438 1613 c-21 -24 -51 -84 -45 -89 3 -3 19 18 36 47 33 52 37 74 9
42z"/>
<path d="M51 1556 c-28 -35 -51 -71 -51 -81 0 -19 37 21 64 70 9 17 23 40 32
53 35 48 3 19 -45 -42z"/>
<path d="M3007 1555 c3 -38 9 -88 13 -110 7 -38 8 -37 9 20 0 33 -6 83 -14
110 l-14 50 6 -70z"/>
<path d="M3139 1615 c-8 -13 9 -172 21 -205 7 -17 8 -1 4 55 -8 102 -18 163
-25 150z"/>
<path d="M232 1515 c-29 -41 -52 -77 -52 -81 0 -3 -9 -19 -21 -35 -11 -16 -16
-29 -11 -29 10 0 145 210 139 216 -2 2 -27 -29 -55 -71z"/>
<path d="M2861 1524 c0 -11 3 -14 6 -6 3 7 2 16 -1 19 -3 4 -6 -2 -5 -13z"/>
<path d="M2852 1480 c0 -14 2 -19 5 -12 2 6 2 18 0 25 -3 6 -5 1 -5 -13z"/>
<path d="M798 1030 c-42 -46 -46 -60 -20 -83 20 -18 98 -47 129 -47 12 0 44
-12 70 -26 55 -29 79 -28 208 6 44 11 90 23 103 26 12 2 22 8 22 12 0 5 -30 2
-67 -6 -38 -8 -106 -15 -153 -15 -74 -1 -94 2 -153 28 -41 18 -77 41 -89 57
-18 26 -18 30 -4 50 37 53 5 51 -46 -2z"/>
<path d="M2090 1030 c0 -5 5 -10 10 -10 21 0 10 -70 -15 -95 -13 -14 -28 -25
-32 -25 -42 0 -193 -33 -227 -49 -23 -12 -49 -21 -58 -21 -9 0 -71 20 -139 45
-68 25 -149 48 -179 51 l-55 4 60 -18 c33 -10 106 -37 162 -60 111 -46 184
-54 247 -28 18 7 62 17 97 21 75 7 158 32 179 52 8 8 23 20 34 27 23 16 16 43
-24 85 -27 30 -60 41 -60 21z"/>
<path d="M1240 570 c0 -33 115 -59 204 -46 76 12 52 23 -54 28 -60 2 -105 9
-112 16 -14 14 -38 16 -38 2z"/>
</g>
</svg>
