<?xml version="1.0" standalone="no"?>
<!DOCTYPE svg PUBLIC "-//W3C//DTD SVG 20010904//EN"
 "http://www.w3.org/TR/2001/REC-SVG-20010904/DTD/svg10.dtd">
<svg version="1.0" xmlns="http://www.w3.org/2000/svg"
 width="340.000000pt" height="340.000000pt" viewBox="0 0 340.000000 340.000000"
 preserveAspectRatio="xMidYMid meet">

<g transform="translate(0.000000,340.000000) scale(0.100000,-0.100000)"
fill="#000000" stroke="none">
<path d="M1563 3384 c-7 -18 -6 -19 56 -164 122 -281 193 -394 337 -538 57
-57 104 -106 104 -109 0 -3 -7 -2 -17 1 -9 4 -72 18 -140 31 -208 42 -489 31
-698 -25 -70 -19 -257 -104 -292 -132 -14 -11 -40 -8 -122 15 -44 13 -63 26
-105 74 -60 68 -240 243 -289 281 -19 15 -64 51 -101 81 -91 73 -279 211 -288
211 -5 0 -8 -159 -8 -354 l0 -354 53 -29 c28 -16 104 -53 167 -82 157 -72 171
-78 203 -86 69 -18 66 -88 -11 -236 -105 -206 -152 -388 -152 -595 0 -194 31
-317 117 -466 44 -75 42 -88 -12 -117 -101 -54 -151 -122 -125 -171 19 -35 47
-34 128 6 57 28 88 38 119 37 54 -2 133 -38 209 -95 32 -25 78 -58 102 -74
l44 -29 3 -75 c5 -89 24 -311 31 -358 l5 -32 178 0 179 0 21 51 c13 28 32 89
44 135 25 98 14 94 181 69 138 -20 296 -35 367 -35 l59 0 0 -97 c0 -54 4 -104
8 -111 7 -9 54 -12 203 -10 l194 3 58 136 58 136 110 32 c135 39 387 161 484
233 39 29 108 91 154 138 127 129 171 237 171 424 0 88 -39 298 -72 391 -65
181 -205 389 -395 587 -57 58 -103 113 -103 121 0 21 -72 128 -111 166 -19 18
-51 44 -71 58 -28 19 -55 57 -105 147 -171 312 -492 707 -653 805 -30 18 -50
21 -153 21 -100 0 -119 -2 -124 -16z m561 -339 c117 -146 131 -165 122 -165
-3 0 -20 20 -38 44 -90 121 -188 236 -298 352 l-85 89 94 -90 c51 -49 143
-153 205 -230z m-1859 -165 c10 -11 16 -20 13 -20 -3 0 -13 9 -23 20 -10 11
-16 20 -13 20 3 0 13 -9 23 -20z m2045 -72 c0 -5 20 -35 43 -66 40 -52 82
-120 60 -97 -19 20 -143 194 -143 201 0 4 9 -1 20 -11 11 -10 20 -22 20 -27z
m-1695 -232 c46 -50 81 -93 78 -96 -3 -3 -8 1 -10 8 -3 6 -10 9 -15 6 -6 -4
-8 -2 -5 3 4 6 -41 59 -101 119 -59 59 -90 95 -69 79 21 -16 76 -69 122 -119z
m2030 -226 c33 -33 57 -60 54 -60 -2 0 -31 27 -64 60 -33 33 -57 60 -54 60 2
0 31 -27 64 -60z m-1775 30 c0 -5 -5 -10 -11 -10 -5 0 -7 5 -4 10 3 6 8 10 11
10 2 0 4 -4 4 -10z m812 -640 c59 -6 119 -15 133 -20 36 -14 48 -50 26 -73
-17 -18 -33 -18 -312 -8 -162 6 -366 9 -454 8 l-160 -2 -3 27 c-4 35 15 44
120 62 101 17 496 20 650 6z m1380 -12 c77 -11 78 -12 84 -45 4 -19 3 -38 -2
-42 -5 -4 -74 -4 -154 0 -80 4 -196 7 -259 8 -91 1 -118 4 -133 18 -25 22 -23
51 5 58 99 25 308 26 459 3z m173 -218 c13 -34 22 -67 19 -71 -3 -5 -1 -9 4
-9 4 0 16 -51 27 -112 10 -62 19 -121 21 -130 2 -10 -1 -18 -7 -18 -5 0 -9
-10 -8 -22 0 -22 1 -22 9 -3 8 19 9 19 9 -2 1 -13 -5 -23 -11 -24 -10 0 -10
-2 -1 -6 20 -8 -2 -233 -23 -233 -3 0 -3 26 1 58 8 72 9 287 1 327 -3 17 -10
53 -15 80 -5 28 -21 89 -35 138 -37 125 -33 135 9 27z m-2445 -451 c98 -29
135 -53 253 -165 69 -66 110 -96 135 -103 20 -5 123 -18 227 -28 298 -28 1026
-22 1320 12 66 8 181 19 255 25 74 6 166 18 203 26 38 9 71 13 74 11 21 -22
-54 -42 -207 -57 -52 -5 -131 -15 -175 -21 -169 -24 -1173 -47 -1331 -31 -60
6 -174 17 -254 24 l-144 12 -111 105 c-114 110 -155 135 -269 167 -39 11 -71
28 -95 51 l-36 35 40 -21 c22 -11 74 -30 115 -42z m421 -1036 c-12 -20 -14
-14 -5 12 4 9 9 14 11 11 3 -2 0 -13 -6 -23z"/>
<path d="M59 537 c-9 -7 -21 -22 -28 -35 -17 -32 9 -62 54 -62 39 0 55 16 55
55 0 17 -5 36 -12 43 -15 15 -48 15 -69 -1z"/>
</g>
</svg>
