<?xml version="1.0"?>
<svg width="240" height="240" xmlns="http://www.w3.org/2000/svg" xmlns:svg="http://www.w3.org/2000/svg">
 <g class="layer">
  <title>Layer 1</title>
  <path d="m75.49,110.23c-0.36,0.32 -0.7,0.63 -1.06,0.95c0.54,0.11 1.07,0.24 1.62,0.34c-0.18,-0.43 -0.37,-0.86 -0.56,-1.29" fill="#b42934" id="svg_2"/>
  <path d="m43.21,151.59c-1.98,0.26 -2.91,0.42 -2.91,0.42c-4.09,0.81 -7.99,-1.64 -9.19,-5.57c0.05,0.2 0.09,0.4 0.16,0.61l11.81,30.55a7.91,7.91 0 0 0 4.69,4.63a7.55,7.55 0 0 0 2.55,0.51a8.29,8.29 0 0 0 4.06,-0.96c0.57,-0.25 16.14,-8.78 34.56,-29.24c-0.09,-0.47 -0.19,-0.92 -0.29,-1.39c-21.85,-2.27 -38.85,-0.53 -45.43,0.44l-0.01,0zm38.37,-25.97a210.36,210.36 0 0 0 -5.56,-14.11c-0.54,-0.11 -1.08,-0.22 -1.62,-0.34c-11,9.59 -23.97,18.54 -39.07,25.76l0.97,-0.38c16.06,-5.31 31.19,-8.82 45.28,-10.93zm29.5,-10.08a166.78,166.78 0 0 1 2.24,3.75c0.7,-1.19 1.39,-2.42 2.08,-3.64c-1.47,-0.01 -2.9,-0.07 -4.32,-0.11z" fill="#b01b8c" id="svg_3"/>
  <path d="m111.06,115.51c-13.17,-0.4 -24.89,-1.93 -35.01,-3.99a204.46,204.46 0 0 1 5.56,14.08c10.4,-1.56 20.22,-2.38 29.46,-2.62c0.74,-1.22 1.5,-2.43 2.25,-3.69a237.67,237.67 0 0 0 -2.26,-3.78zm-22.1,37.03c0.37,-0.41 0.74,-0.81 1.11,-1.24c-0.47,-0.05 -0.94,-0.11 -1.4,-0.16c0.1,0.48 0.2,0.92 0.29,1.4z" fill="#2f2e8f" id="svg_4"/>
  <path d="m94.05,91.33c-8.88,-11.14 -19.48,-22.5 -32.11,-33.75l-0.44,-0.37c-3.25,-2.51 -7.85,-2.22 -10.72,0.82c-2.8,3 -2.97,7.61 -0.23,10.74c0,0 0.61,0.74 1.83,2.32c4.13,5.21 14.14,19.07 23.09,39.12a191.64,191.64 0 0 0 18.58,-18.88zm0.02,0.01a192.91,192.91 0 0 1 -18.58,18.89c0.19,0.43 0.38,0.86 0.56,1.29c10.12,2.06 21.84,3.59 35.01,3.99a239.65,239.65 0 0 0 -16.99,-24.17zm-5.4,59.8c0.46,0.05 0.93,0.11 1.4,0.16c6.85,-7.73 14.03,-17.11 20.96,-28.32a240.24,240.24 0 0 0 -29.43,2.63a191.79,191.79 0 0 1 7.07,25.53z" fill="#363639" id="svg_5"/>
  <path d="m35.76,136.74c-3.79,1.57 -5.86,5.7 -4.65,9.7c1.19,3.92 5.1,6.38 9.19,5.57c0,0 0.94,-0.16 2.91,-0.42c6.58,-0.97 23.59,-2.71 45.44,-0.45a191.52,191.52 0 0 0 -7.07,-25.52c-14.09,2.11 -29.22,5.62 -45.28,10.93l-0.54,0.19z" fill="#633438" id="svg_6"/>
  <path d="m132.04,160.65c-0.46,-0.16 -0.9,-0.29 -1.35,-0.45c-12.91,17.79 -19.89,33.39 -22.34,39.57a92.86,92.86 0 0 0 -1.09,2.74c-1.34,3.95 -5.43,6.1 -9.42,5.17c0.2,0.05 0.39,0.13 0.61,0.16l32.36,5.06a7.96,7.96 0 0 0 6.35,-1.76a7.07,7.07 0 0 0 1.72,-1.95a8.3,8.3 0 0 0 1.2,-3.99c0.06,-0.61 0.47,-18.37 -8.04,-44.55zm-42,-9.33c-0.37,0.42 -0.73,0.83 -1.1,1.24c2.8,14.31 4.08,30.02 2.77,46.71l0.16,-1.02c3.43,-16.57 7.96,-31.43 13.17,-44.69a205.34,205.34 0 0 0 -15,-2.23l0,-0.01zm23.28,-32.03c-0.75,1.26 -1.51,2.47 -2.26,3.69c1.47,-0.05 2.92,-0.06 4.36,-0.07c-0.66,-1.2 -1.39,-2.41 -2.1,-3.62z" fill="#08c" id="svg_7"/>
  <path d="m115.42,122.91c-1.45,0.01 -2.9,0.04 -4.39,0.07c-6.93,11.2 -14.12,20.59 -20.96,28.33c4.79,0.52 9.79,1.25 14.97,2.22a239.58,239.58 0 0 1 12.46,-26.82c-0.69,-1.26 -1.36,-2.52 -2.08,-3.8m15.27,37.27c0.46,0.15 0.9,0.29 1.36,0.45c-0.18,-0.52 -0.34,-1.05 -0.52,-1.58l-0.84,1.13" fill="#00854d" id="svg_8"/>
  <path d="m117.48,126.74a240.25,240.25 0 0 0 -12.44,26.8a191.23,191.23 0 0 1 25.65,6.64c0.28,-0.37 0.56,-0.75 0.83,-1.13c-3.27,-9.79 -7.8,-20.7 -14.04,-32.31zm-25.61,71.51l-0.1,0.56c-0.55,4.07 2,7.92 6.06,8.87c4,0.93 8.08,-1.22 9.43,-5.18c0,0 0.33,-0.88 1.09,-2.73c2.44,-6.18 9.44,-21.78 22.33,-39.57a190.94,190.94 0 0 0 -25.65,-6.64c-5.2,13.26 -9.73,28.12 -13.16,44.69z" fill="#00794a" id="svg_9"/>
  <path d="m206.9,148.19a7.33,7.33 0 0 0 -0.83,-2.46a8.33,8.33 0 0 0 -2.86,-3.04c-0.5,-0.36 -15.67,-9.6 -42.6,-15.31c-0.36,0.32 -0.7,0.63 -1.07,0.95c8.96,20.06 18.98,33.92 23.1,39.13a99.92,99.92 0 0 0 1.82,2.31c2.75,3.14 2.59,7.75 -0.23,10.75c0.15,-0.16 0.31,-0.28 0.46,-0.45l20.55,-25.5a7.96,7.96 0 0 0 1.66,-6.38zm-65.93,-0.98a206.36,206.36 0 0 0 -9.44,11.88c0.17,0.52 0.35,1.04 0.53,1.57c13.79,4.73 28.03,11.48 41.83,20.96l-0.81,-0.66c-12.64,-11.25 -23.22,-22.6 -32.11,-33.75zm-23.48,-20.5c0.7,-1.3 1.41,-2.56 2.12,-3.82c-1.37,-0.01 -2.79,0.01 -4.19,0.02c0.73,1.28 1.39,2.54 2.07,3.8z" fill="#43b950" id="svg_10"/>
  <path d="m119.62,122.89a329.73,329.73 0 0 0 -2.14,3.85c6.24,11.6 10.77,22.51 14.05,32.31c2.86,-3.88 5.99,-7.85 9.42,-11.86a240.37,240.37 0 0 1 -17.01,-24.18c-1.43,-0.05 -2.86,-0.1 -4.32,-0.12m39.91,5.43c0.36,-0.32 0.7,-0.63 1.06,-0.95a73.59,73.59 0 0 0 -1.62,-0.34l0.56,1.29" fill="#55a54c" id="svg_11"/>
  <path d="m159.53,128.31c-0.19,-0.42 -0.38,-0.86 -0.56,-1.29c-10.12,-2.05 -21.84,-3.59 -35.01,-3.99a238.75,238.75 0 0 0 16.99,24.17a191.61,191.61 0 0 1 18.58,-18.89zm24.93,41.46s-0.6,-0.73 -1.82,-2.31c-4.13,-5.22 -14.14,-19.07 -23.1,-39.13a190.89,190.89 0 0 0 -18.57,18.89c8.88,11.14 19.47,22.49 32.11,33.74l0.43,0.37c3.26,2.51 7.87,2.23 10.72,-0.81c2.82,-3 2.98,-7.61 0.23,-10.75z" fill="#6d6c41" id="svg_12"/>
  <path d="m203.74,91.49l-11.79,-30.54a7.98,7.98 0 0 0 -4.7,-4.64a7.45,7.45 0 0 0 -2.55,-0.51a8.33,8.33 0 0 0 -4.06,0.96c-0.56,0.25 -16.15,8.78 -34.56,29.25c0.1,0.47 0.19,0.92 0.3,1.39c21.84,2.27 38.85,0.52 45.43,-0.44c1.97,-0.27 2.9,-0.43 2.9,-0.43c4.1,-0.81 8.01,1.64 9.2,5.58c-0.05,-0.2 -0.09,-0.41 -0.17,-0.62zm-50.3,21.44a203.36,203.36 0 0 0 5.57,14.11c0.53,0.11 1.08,0.22 1.61,0.34c11,-9.59 23.96,-18.55 39.07,-25.76l-0.97,0.38c-16.07,5.31 -31.19,8.81 -45.28,10.93zm-29.5,10.08c-0.77,-1.26 -1.51,-2.51 -2.24,-3.75c-0.7,1.19 -1.39,2.42 -2.08,3.63c1.47,0.02 2.89,0.08 4.32,0.12" fill="#ffd535" id="svg_13"/>
  <path d="m121.7,119.26a251.3,251.3 0 0 0 2.26,3.77c13.17,0.4 24.89,1.93 35.01,3.99a203.68,203.68 0 0 1 -5.56,-14.08a239.58,239.58 0 0 1 -29.45,2.63c-0.75,1.22 -1.51,2.43 -2.26,3.69m24.65,-31.85c-0.1,-0.48 -0.2,-0.93 -0.29,-1.4c-0.37,0.41 -0.74,0.82 -1.11,1.24c0.46,0.05 0.93,0.11 1.4,0.16" fill="#f97732" id="svg_14"/>
  <path d="m137.19,30.87c-0.21,-0.06 -0.4,-0.13 -0.62,-0.17l-32.35,-5.05a7.95,7.95 0 0 0 -6.36,1.75c-0.69,0.56 -1.28,1.21 -1.72,1.96a8.44,8.44 0 0 0 -1.21,3.99c-0.05,0.61 -0.46,18.37 8.05,44.55c0.46,0.15 0.9,0.29 1.36,0.44c12.89,-17.79 19.88,-33.39 22.33,-39.56a91.09,91.09 0 0 0 1.09,-2.74c1.35,-3.96 5.42,-6.1 9.43,-5.17zm6.12,8.41l-0.15,1.02c-3.44,16.57 -7.97,31.42 -13.18,44.68a202.59,202.59 0 0 0 15,2.24c0.36,-0.41 0.73,-0.83 1.1,-1.23c-2.8,-14.32 -4.08,-30.02 -2.77,-46.71zm-19.35,76.29c-1.47,0.04 -2.93,0.06 -4.37,0.07c0.67,1.2 1.4,2.41 2.11,3.62c0.75,-1.26 1.51,-2.47 2.26,-3.69" fill="#fa8233" id="svg_15"/>
  <path d="m50.55,68.77c-2.74,-3.13 -2.57,-7.74 0.23,-10.74c-0.14,0.15 -0.31,0.28 -0.45,0.45l-20.55,25.49a7.98,7.98 0 0 0 -1.66,6.39a7.36,7.36 0 0 0 0.84,2.46a8.32,8.32 0 0 0 2.85,3.04c0.5,0.35 15.67,9.59 42.61,15.3c0.36,-0.32 0.7,-0.63 1.05,-0.95c-8.95,-20.05 -18.96,-33.91 -23.09,-39.12a81.1,81.1 0 0 0 -1.83,-2.32zm52.42,9.12c-13.8,-4.74 -28.04,-11.48 -41.84,-20.96l0.81,0.65c12.63,11.25 23.23,22.61 32.11,33.75a200.33,200.33 0 0 0 9.43,-11.86l0.01,0.02c0.28,-0.37 0.56,-0.75 0.84,-1.13c-0.46,-0.15 -0.9,-0.29 -1.35,-0.44l-0.01,-0.03zm41.98,9.35s-9.79,-1.25 -14.98,-2.22a237.52,237.52 0 0 1 -12.45,26.82l0.01,0c-0.7,1.29 -1.41,2.56 -2.13,3.81c1.38,0.02 2.8,0 4.19,-0.01c-0.06,-0.11 -0.11,-0.21 -0.17,-0.32c0.06,0.11 0.11,0.21 0.17,0.32a286.43,286.43 0 0 0 4.41,-0.07l0,0c9.22,-0.26 19.03,-1.07 29.42,-2.63a190.59,190.59 0 0 1 -7.07,-25.53c-0.47,-0.05 -1.4,-0.17 -1.4,-0.17zm58.96,4.86c-1.19,-3.92 -5.1,-6.38 -9.2,-5.57c0,0 -0.93,0.16 -2.9,0.43c-6.58,0.96 -23.59,2.71 -45.43,0.44a189.92,189.92 0 0 0 7.06,25.53c14.09,-2.12 29.21,-5.63 45.29,-10.93l0.53,-0.2c3.8,-1.56 5.86,-5.7 4.65,-9.69l0,-0.01z" fill="#f4192f" id="svg_16"/>
  <g fill="#b42934" id="svg_17">
   <path d="m104.33,78.36c-0.27,0.38 -0.56,0.76 -0.84,1.13l0,0a201.95,201.95 0 0 1 -9.41,11.85a239.4,239.4 0 0 1 17,24.2c1.43,0.04 2.86,0.09 4.33,0.12a296.78,296.78 0 0 0 2.13,-3.85l0,-0.01a238.74,238.74 0 0 0 12.43,-26.79a191.95,191.95 0 0 1 -25.64,-6.65z" id="svg_18"/>
   <path d="m137.19,30.87c-4.01,-0.93 -8.08,1.22 -9.43,5.17c0,0 -0.32,0.89 -1.09,2.74c-2.45,6.17 -9.44,21.77 -22.33,39.56a192.81,192.81 0 0 0 25.64,6.64c5.21,-13.26 9.74,-28.11 13.18,-44.68l0.09,-0.56c0.54,-4.07 -2,-7.92 -6.06,-8.87z" id="svg_19"/>
  </g>
 </g>
</svg>